<svg xmlns="http://www.w3.org/2000/svg" viewBox="0 0 32 32">
  <!-- Dark night sky background -->
  <circle cx="16" cy="16" r="15.5" fill="#0c0f1a"/>
  <!-- Amber signal ring -->
  <circle cx="16" cy="16" r="15.5" fill="none" stroke="#d97706" stroke-width="1.5"/>
  <!-- Bat silhouette (body + wings + ears + wing membrane details) -->
  <path fill="#d97706" d="
    M16 22 C13 20.5 9.5 20.5 6 22 C7 18 8.5 14 11.5 12.5
    L14 11.5 L14 9 L15.5 10.5 L18 9 L18 11.5
    L20.5 12.5 C23.5 14 25 18 26 22
    C22.5 20.5 19 20.5 16 22Z
    M11.5 12.5 C10.5 14.5 10.5 17 11 18.5 C9.5 17 9 15 9 12.5Z
    M20.5 12.5 C21.5 14.5 21.5 17 21 18.5 C22.5 17 23 15 23 12.5Z
  "/>
</svg>
